<svg xmlns="http://www.w3.org/2000/svg" xmlns:xlink="http://www.w3.org/1999/xlink" width="256" height="256" viewBox="0 0 256 256"><defs><clipPath id="a"><rect width="133" height="230" transform="translate(-588.815 -239.025)" fill="#fff"></rect></clipPath><clipPath id="b"><rect width="652.966" height="220.751" fill="none"></rect></clipPath><clipPath id="d"><rect width="256" height="256"></rect></clipPath></defs><g id="c" clip-path="url(#d)"><rect width="256" height="256" fill="rgba(255,255,255,0)"></rect><g transform="translate(650.815 252.025)" clip-path="url(#a)"><g transform="translate(-579.802 -234.401)"><g transform="translate(0)"><g clip-path="url(#b)"><path d="M556.947,117.164a49.79,49.79,0,0,1,7.047,4.784V73.708H531.948v36.738a55.964,55.964,0,0,1,25,6.718" transform="translate(-152.641 -21.15)" fill="#fff"></path><path d="M648.85,158.318a41,41,0,0,0-16.3-16.479q-10.472-5.823-24.307-5.825a52.458,52.458,0,0,0-16.662,2.639,42.058,42.058,0,0,0-9.486,4.481,49.754,49.754,0,0,1,8.576,11.451,52.828,52.828,0,0,1,3.208,7.113,25.31,25.31,0,0,1,5.986-.74q9.834,0,15.841,5.828t6.009,15.841q0,10.014-6.009,15.748t-15.841,5.737a25.335,25.335,0,0,1-5.906-.722,51,51,0,0,1-3.314,7.321,48.893,48.893,0,0,1-8.137,10.817c7.194,4.869,15.756,7.346,25.734,7.346a49.925,49.925,0,0,0,24.217-5.734,40.523,40.523,0,0,0,16.387-16.206q5.825-10.469,5.827-24.307a49.83,49.83,0,0,0-5.827-24.309" transform="translate(-167.032 -39.029)" fill="#fff"></path><path d="M575.193,262.375h.117v-.093c-.04.03-.077.063-.117.093" transform="translate(-165.05 -75.261)" fill="#fff"></path><path d="M232.18,139.842h32.045l17.355,52.086a2.615,2.615,0,0,0,4.964-.007l17.192-52.079h32.046l-30.725,73.375a22.85,22.85,0,0,1-42.153,0Z" transform="translate(-66.623 -40.127)" fill="#fff"></path><path d="M387.495,108.919a17.04,17.04,0,0,1,0-23.945,17.72,17.72,0,0,1,24.308,0,16.71,16.71,0,0,1,0,23.854,17.849,17.849,0,0,1-24.308.091m12.2,13.794h0a16.023,16.023,0,0,1,16.023,16.023v71.376H383.672V138.736a16.023,16.023,0,0,1,16.023-16.023" transform="translate(-109.78 -22.999)" fill="#fff"></path><path d="M543.311,140.439a41,41,0,0,0-16.3-16.479q-10.473-5.823-24.307-5.826a52.459,52.459,0,0,0-16.662,2.64,38.743,38.743,0,0,0-13.2,7.192V73.707H440.8V208.264h30.953v-8.741q12.2,11.471,30.955,11.471a49.924,49.924,0,0,0,24.216-5.734,40.531,40.531,0,0,0,16.388-16.206q5.823-10.469,5.826-24.307a49.843,49.843,0,0,0-5.826-24.309M510.172,180.5q-6.009,5.735-15.841,5.737a23.768,23.768,0,0,1-13.111-3.732l-.116-.075a18.825,18.825,0,0,1-8.259-15.884V162.77a18.831,18.831,0,0,1,8.252-15.88l.123-.079a23.81,23.81,0,0,1,13.111-3.733q9.833,0,15.841,5.828t6.007,15.842q0,10.013-6.007,15.748" transform="translate(-126.486 -21.15)" fill="#fff"></path><path d="M688.472,139.33h30.953v10.925q5.1-5.823,14.384-9.012a63.1,63.1,0,0,1,20.575-3.186v24.58a60.105,60.105,0,0,0-21.212,3.459l-.183.07a19.837,19.837,0,0,0-12.471,18.63v41.933H688.472Z" transform="translate(-197.555 -39.615)" fill="#fff"></path><path d="M791.013,220.952q-10.106-7.918-10.1-22.122,0-14.746,9.741-22.669t27.948-7.921a66.67,66.67,0,0,1,14.2,1.549,52.306,52.306,0,0,1,12.2,4.1v-1.822q0-14.018-22.941-14.019a68.568,68.568,0,0,0-29.315,6.192V142.2a63.765,63.765,0,0,1,15.295-4.459,109.165,109.165,0,0,1,19.665-1.731q24.4,0,36.872,9.74t12.472,27.222v45.7a7.465,7.465,0,0,1-7.466,7.465H854.467A7.465,7.465,0,0,1,847,218.677a34.8,34.8,0,0,1-12.381,7.465,49.632,49.632,0,0,1-17.116,2.73q-16.386,0-26.492-7.921m46.521-14.019a20.884,20.884,0,0,0,4.769-2.98,7.79,7.79,0,0,0,2.7-5.958,7.96,7.96,0,0,0-4.782-7.27,32.033,32.033,0,0,0-13.061-2.638q-6.376,0-9.833,2.73t-3.459,8.012a9.285,9.285,0,0,0,3.368,7.648q3.365,2.733,9.741,2.733a24.826,24.826,0,0,0,10.561-2.278" transform="translate(-224.079 -39.029)" fill="#fff"></path><path d="M121.176.853c-6-2.8-13.375,2.2-13.375,2.2C61.277,35.738,39.736,81.933,39.736,81.933A194.083,194.083,0,0,0,62.082,95.7,253.551,253.551,0,0,1,91.86,53.543c2.722-3.1,5.41-1.423,5.41-1.423s3.012.98,2.387,5.059a253.537,253.537,0,0,1-13.151,49.908,194.1,194.1,0,0,0,24.907,8.27s21.541-46.194,16.678-102.846c0,0-.911-8.858-6.916-11.658" transform="translate(-11.402 0)" fill="#6ae51a"></path><path d="M7.63,262.313c-6-2.8-6.916-11.658-6.916-11.658C-4.148,194,17.393,147.809,17.393,147.809a194.1,194.1,0,0,1,24.907,8.27,253.539,253.539,0,0,0-13.151,49.908c-.625,4.079,2.387,5.059,2.387,5.059s2.687,1.677,5.41-1.423a253.551,253.551,0,0,0,29.779-42.154A194.091,194.091,0,0,1,89.07,181.233s-21.541,46.195-68.065,78.884c0,0-7.371,5-13.375,2.2" transform="translate(0 -42.413)" fill="#04a2e8"></path></g></g></g></g></g></svg>